# xmcd
#
# Track frame offsets: 
#        150
#        11268
#        29358
#        45818
#        52207
#        66538
#
# Disc length: 1117 seconds
#
# Revision: 0
# Processed by: cddbd v1.5.2PL0 Copyright (c) Steve Scherf et al.
# Submitted via: ExactAudioCopy v0.99pb4
#
DISCID=48045b06
DTITLE=Chelsea McBee - With The Fox Hunt - Chelsea McBee - With The Fo
DTITLE=x Hunt
DYEAR=2008
DGENRE=Country
TTITLE0=Mountain Girl
TTITLE1=Just a Girl
TTITLE2=Coal Miner's Minor
TTITLE3=Bitter Roots
TTITLE4=Up on the Mountain
TTITLE5=Easier to Run
EXTD=All of the tracks on this cd were recorded and mixed by Ben Towns
EXTD=end 2008\n\nChelsea McBee - Lead vocals, banjo\nBen Townsend - Vo
EXTD=cals, fiddle\nMatt Kline - Vocals, guitar\nMatthew Metz - Vocals,
EXTD=mandolin\nJohn R. Miller - Vocals, bass\n\nhttp://www.myspace.co
EXTD=m/chelseamcbee
EXTT0=
EXTT1=
EXTT2=
EXTT3=
EXTT4=
EXTT5=
PLAYORDER=
